<?xml version="1.0" encoding="UTF-8"?>
<svg width="123px" height="97px" viewBox="0 0 123 97" version="1.1" xmlns="http://www.w3.org/2000/svg" xmlns:xlink="http://www.w3.org/1999/xlink">
    <!-- Generator: Sketch 48.2 (47327) - http://www.bohemiancoding.com/sketch -->
    <title>footer_logo</title>
    <desc>Created with Sketch.</desc>
    <defs></defs>
    <g id="Desktop-HD" stroke="none" stroke-width="1" fill="none" fill-rule="evenodd" transform="translate(-118.000000, -3288.000000)">
        <g id="footer_logo" transform="translate(118.000000, 3288.000000)">
            <path d="M15.1729927,7.63582343 C15.0931869,7.101016 14.9136267,6.61078321 14.6343066,6.16511036 C14.3549864,5.7194375 14.0058415,5.32824164 13.5868613,4.99151104 C13.1678811,4.65478043 12.6940416,4.39233258 12.1653285,4.20415959 C11.6366154,4.01598661 11.0829713,3.92190153 10.5043796,3.92190153 C9.44695335,3.92190153 8.54915211,4.12492723 7.81094891,4.53098472 C7.0727457,4.93704221 6.47421154,5.48174531 6.01532847,6.16511036 C5.55644539,6.8484754 5.22226382,7.62591528 5.01277372,8.49745331 C4.80328362,9.36899134 4.69854015,10.2702274 4.69854015,11.2011885 C4.69854015,12.0925342 4.80328362,12.9591073 5.01277372,13.8009338 C5.22226382,14.6427603 5.55644539,15.4003928 6.01532847,16.073854 C6.47421154,16.7473152 7.0727457,17.2870664 7.81094891,17.6931239 C8.54915211,18.0991814 9.44695335,18.3022071 10.5043796,18.3022071 C11.9408831,18.3022071 13.0631346,17.8664447 13.8711679,16.9949066 C14.6792011,16.1233686 15.1729918,14.9745402 15.3525547,13.5483871 L19.9014599,13.5483871 C19.7817512,14.8755018 19.4725086,16.0738486 18.9737226,17.1434635 C18.4749367,18.2130784 17.8165491,19.1242181 16.9985401,19.87691 C16.1805312,20.629602 15.2228765,21.2040161 14.1255474,21.6001698 C13.0282184,21.9963234 11.8211745,22.1943973 10.5043796,22.1943973 C8.86836165,22.1943973 7.39696517,21.912142 6.09014599,21.3476231 C4.7833268,20.7831041 3.68102639,20.0056643 2.78321168,19.0152801 C1.88539697,18.024896 1.19708269,16.8612121 0.718248175,15.5241935 C0.239413664,14.187175 0,12.7461877 0,11.2011885 C0,9.61657385 0.239413664,8.14587549 0.718248175,6.78904924 C1.19708269,5.43222298 1.88539697,4.24873171 2.78321168,3.2385399 C3.68102639,2.22834809 4.7833268,1.43605267 6.09014599,0.861629881 C7.39696517,0.287207088 8.86836165,0 10.5043796,0 C11.6815144,0 12.7937904,0.168362776 13.8412409,0.505093379 C14.8886914,0.841823981 15.8263949,1.33205677 16.6543796,1.97580645 C17.4823642,2.61955613 18.1656907,3.4168034 18.7043796,4.36757216 C19.2430684,5.31834092 19.5822377,6.40774711 19.7218978,7.63582343 L15.1729927,7.63582343 Z M26.8744526,11.2011885 C26.8744526,12.0925342 26.979196,12.9591073 27.1886861,13.8009338 C27.3981762,14.6427603 27.7323578,15.4003928 28.1912409,16.073854 C28.6501239,16.7473152 29.2486581,17.2870664 29.9868613,17.6931239 C30.7250645,18.0991814 31.6228658,18.3022071 32.680292,18.3022071 C33.7377182,18.3022071 34.6355194,18.0991814 35.3737226,17.6931239 C36.1119258,17.2870664 36.71046,16.7473152 37.1693431,16.073854 C37.6282261,15.4003928 37.9624077,14.6427603 38.1718978,13.8009338 C38.3813879,12.9591073 38.4861314,12.0925342 38.4861314,11.2011885 C38.4861314,10.2702274 38.3813879,9.36899134 38.1718978,8.49745331 C37.9624077,7.62591528 37.6282261,6.8484754 37.1693431,6.16511036 C36.71046,5.48174531 36.1119258,4.93704221 35.3737226,4.53098472 C34.6355194,4.12492723 33.7377182,3.92190153 32.680292,3.92190153 C31.6228658,3.92190153 30.7250645,4.12492723 29.9868613,4.53098472 C29.2486581,4.93704221 28.6501239,5.48174531 28.1912409,6.16511036 C27.7323578,6.8484754 27.3981762,7.62591528 27.1886861,8.49745331 C26.979196,9.36899134 26.8744526,10.2702274 26.8744526,11.2011885 Z M22.1759124,11.2011885 C22.1759124,9.61657385 22.4153261,8.14587549 22.8941606,6.78904924 C23.3729951,5.43222298 24.0613094,4.24873171 24.9591241,3.2385399 C25.8569388,2.22834809 26.9592392,1.43605267 28.2660584,0.861629881 C29.5728776,0.287207088 31.0442741,0 32.680292,0 C34.3362613,0 35.8126456,0.287207088 37.1094891,0.861629881 C38.4063325,1.43605267 39.5036451,2.22834809 40.4014599,3.2385399 C41.2992746,4.24873171 41.9875888,5.43222298 42.4664234,6.78904924 C42.9452579,8.14587549 43.1846715,9.61657385 43.1846715,11.2011885 C43.1846715,12.7461877 42.9452579,14.187175 42.4664234,15.5241935 C41.9875888,16.8612121 41.2992746,18.024896 40.4014599,19.0152801 C39.5036451,20.0056643 38.4063325,20.7831041 37.1094891,21.3476231 C35.8126456,21.912142 34.3362613,22.1943973 32.680292,22.1943973 C31.0442741,22.1943973 29.5728776,21.912142 28.2660584,21.3476231 C26.9592392,20.7831041 25.8569388,20.0056643 24.9591241,19.0152801 C24.0613094,18.024896 23.3729951,16.8612121 22.8941606,15.5241935 C22.4153261,14.187175 22.1759124,12.7461877 22.1759124,11.2011885 Z M50.1576642,11.2011885 C50.1576642,12.0925342 50.2624077,12.9591073 50.4718978,13.8009338 C50.6813879,14.6427603 51.0155695,15.4003928 51.4744526,16.073854 C51.9333356,16.7473152 52.5318698,17.2870664 53.270073,17.6931239 C54.0082762,18.0991814 54.9060774,18.3022071 55.9635036,18.3022071 C57.0209299,18.3022071 57.9187311,18.0991814 58.6569343,17.6931239 C59.3951375,17.2870664 59.9936717,16.7473152 60.4525547,16.073854 C60.9114378,15.4003928 61.2456194,14.6427603 61.4551095,13.8009338 C61.6645996,12.9591073 61.7693431,12.0925342 61.7693431,11.2011885 C61.7693431,10.2702274 61.6645996,9.36899134 61.4551095,8.49745331 C61.2456194,7.62591528 60.9114378,6.8484754 60.4525547,6.16511036 C59.9936717,5.48174531 59.3951375,4.93704221 58.6569343,4.53098472 C57.9187311,4.12492723 57.0209299,3.92190153 55.9635036,3.92190153 C54.9060774,3.92190153 54.0082762,4.12492723 53.270073,4.53098472 C52.5318698,4.93704221 51.9333356,5.48174531 51.4744526,6.16511036 C51.0155695,6.8484754 50.6813879,7.62591528 50.4718978,8.49745331 C50.2624077,9.36899134 50.1576642,10.2702274 50.1576642,11.2011885 Z M45.4591241,11.2011885 C45.4591241,9.61657385 45.6985378,8.14587549 46.1773723,6.78904924 C46.6562068,5.43222298 47.3445211,4.24873171 48.2423358,3.2385399 C49.1401505,2.22834809 50.2424509,1.43605267 51.5492701,0.861629881 C52.8560893,0.287207088 54.3274857,0 55.9635036,0 C57.619473,0 59.0958573,0.287207088 60.3927007,0.861629881 C61.6895442,1.43605267 62.7868568,2.22834809 63.6846715,3.2385399 C64.5824862,4.24873171 65.2708005,5.43222298 65.749635,6.78904924 C66.2284695,8.14587549 66.4678832,9.61657385 66.4678832,11.2011885 C66.4678832,12.7461877 66.2284695,14.187175 65.749635,15.5241935 C65.2708005,16.8612121 64.5824862,18.024896 63.6846715,19.0152801 C62.7868568,20.0056643 61.6895442,20.7831041 60.3927007,21.3476231 C59.0958573,21.912142 57.619473,22.1943973 55.9635036,22.1943973 C54.3274857,22.1943973 52.8560893,21.912142 51.5492701,21.3476231 C50.2424509,20.7831041 49.1401505,20.0056643 48.2423358,19.0152801 C47.3445211,18.024896 46.6562068,16.8612121 46.1773723,15.5241935 C45.6985378,14.187175 45.4591241,12.7461877 45.4591241,11.2011885 Z M69.670073,0.505093379 L74.3686131,0.505093379 L74.3686131,17.7971138 L84.7832117,17.7971138 L84.7832117,21.7190153 L69.670073,21.7190153 L69.670073,0.505093379 Z M15.1729927,31.7763158 C15.0931869,31.2415084 14.9136267,30.7512756 14.6343066,30.3056027 C14.3549864,29.8599299 14.0058415,29.468734 13.5868613,29.1320034 C13.1678811,28.7952728 12.6940416,28.5328249 12.1653285,28.344652 C11.6366154,28.156479 11.0829713,28.0623939 10.5043796,28.0623939 C9.44695335,28.0623939 8.54915211,28.2654196 7.81094891,28.6714771 C7.0727457,29.0775346 6.47421154,29.6222377 6.01532847,30.3056027 C5.55644539,30.9889678 5.22226382,31.7664076 5.01277372,32.6379457 C4.80328362,33.5094837 4.69854015,34.4107197 4.69854015,35.3416808 C4.69854015,36.2330265 4.80328362,37.0995996 5.01277372,37.9414261 C5.22226382,38.7832527 5.55644539,39.5408851 6.01532847,40.2143463 C6.47421154,40.8878076 7.0727457,41.4275588 7.81094891,41.8336163 C8.54915211,42.2396738 9.44695335,42.4426995 10.5043796,42.4426995 C11.9408831,42.4426995 13.0631346,42.006937 13.8711679,41.135399 C14.6792011,40.263861 15.1729918,39.1150326 15.3525547,37.6888795 L19.9014599,37.6888795 C19.7817512,39.0159942 19.4725086,40.214341 18.9737226,41.2839559 C18.4749367,42.3535707 17.8165491,43.2647104 16.9985401,44.0174024 C16.1805312,44.7700943 15.2228765,45.3445085 14.1255474,45.7406621 C13.0282184,46.1368158 11.8211745,46.3348896 10.5043796,46.3348896 C8.86836165,46.3348896 7.39696517,46.0526344 6.09014599,45.4881154 C4.7833268,44.9235965 3.68102639,44.1461566 2.78321168,43.1557725 C1.88539697,42.1653884 1.19708269,41.0017045 0.718248175,39.6646859 C0.239413664,38.3276673 0,36.8866801 0,35.3416808 C0,33.7570662 0.239413664,32.2863678 0.718248175,30.9295416 C1.19708269,29.5727153 1.88539697,28.3892241 2.78321168,27.3790323 C3.68102639,26.3688404 4.7833268,25.576545 6.09014599,25.0021222 C7.39696517,24.4276994 8.86836165,24.1404924 10.5043796,24.1404924 C11.6815144,24.1404924 12.7937904,24.3088551 13.8412409,24.6455857 C14.8886914,24.9823163 15.8263949,25.4725491 16.6543796,26.1162988 C17.4823642,26.7600485 18.1656907,27.5572958 18.7043796,28.5080645 C19.2430684,29.4588333 19.5822377,30.5482395 19.7218978,31.7763158 L15.1729927,31.7763158 Z M27.8021898,34.2423599 L32.949635,34.2423599 C34.0270127,34.2423599 34.8350338,34.0046713 35.3737226,33.5292869 C35.9124115,33.0539025 36.1817518,32.2814145 36.1817518,31.2117997 C36.1817518,30.1818002 35.9124115,29.4340714 35.3737226,28.9685908 C34.8350338,28.5031103 34.0270127,28.2703735 32.949635,28.2703735 L27.8021898,28.2703735 L27.8021898,34.2423599 Z M23.1036496,24.6455857 L34.6255474,24.6455857 C35.5832165,24.6455857 36.4461032,24.799093 37.2142336,25.1061121 C37.9823639,25.4131311 38.6407515,25.8340381 39.1894161,26.3688455 C39.7380806,26.9036529 40.1570545,27.5226337 40.4463504,28.2258065 C40.7356462,28.9289792 40.880292,29.6866117 40.880292,30.4987267 C40.880292,31.7466107 40.6159394,32.8261132 40.0872263,33.7372666 C39.5585132,34.6484199 38.6956264,35.3416784 37.4985401,35.8170628 L37.4985401,35.8764856 C38.0771318,36.034947 38.5559592,36.2775875 38.9350365,36.6044143 C39.3141138,36.931241 39.6233565,37.317485 39.8627737,37.7631579 C40.102191,38.2088308 40.2767634,38.6990635 40.3864964,39.233871 C40.4962293,39.7686784 40.571046,40.3034778 40.6109489,40.8382852 C40.6309003,41.1750158 40.6508515,41.5711635 40.6708029,42.0267402 C40.6907544,42.4823169 40.7256689,42.9477905 40.7755474,43.4231749 C40.825426,43.8985593 40.9052306,44.3491773 41.0149635,44.7750424 C41.1246964,45.2009076 41.2892933,45.5623924 41.5087591,45.8595076 L36.810219,45.8595076 C36.5508503,45.1860464 36.3912412,44.3838473 36.3313869,43.4528862 C36.2715325,42.5219252 36.1817524,41.6305928 36.0620438,40.7788625 C35.9024323,39.6696323 35.5632629,38.8575295 35.0445255,38.3425297 C34.5257882,37.82753 33.6778648,37.570034 32.5007299,37.570034 L27.8021898,37.570034 L27.8021898,45.8595076 L23.1036496,45.8595076 L23.1036496,24.6455857 Z M50.2474453,37.5997453 L42.4065693,24.6455857 L47.6737226,24.6455857 L52.6715328,33.0241935 L57.6394161,24.6455857 L62.8766423,24.6455857 L54.9459854,37.7185908 L54.9459854,45.8595076 L50.2474453,45.8595076 L50.2474453,37.5997453 Z M69.3708029,34.6286078 L73.0218978,34.6286078 C73.5605866,34.6286078 74.0793162,34.588993 74.5781022,34.5097623 C75.0768881,34.4305316 75.5158132,34.2770243 75.8948905,34.049236 C76.2739678,33.8214476 76.5782227,33.4995776 76.8076642,33.0836163 C77.0371058,32.667655 77.1518248,32.1229519 77.1518248,31.4494907 C77.1518248,30.7760295 77.0371058,30.2313264 76.8076642,29.815365 C76.5782227,29.3994037 76.2739678,29.0775337 75.8948905,28.8497453 C75.5158132,28.621957 75.0768881,28.4684497 74.5781022,28.389219 C74.0793162,28.3099883 73.5605866,28.2703735 73.0218978,28.2703735 L69.3708029,28.2703735 L69.3708029,34.6286078 Z M64.6722628,24.6455857 L74.3087591,24.6455857 C75.6455055,24.6455857 76.7827204,24.8387077 77.720438,25.2249576 C78.6581555,25.6112074 79.4212866,26.1212475 80.009854,26.7550934 C80.5984214,27.3889392 81.0273709,28.1119088 81.2967153,28.9240238 C81.5660597,29.7361388 81.7007299,30.5779526 81.7007299,31.4494907 C81.7007299,32.301221 81.5660597,33.138083 81.2967153,33.9601019 C81.0273709,34.7821207 80.5984214,35.5100421 80.009854,36.1438879 C79.4212866,36.7777338 78.6581555,37.287774 77.720438,37.6740238 C76.7827204,38.0602736 75.6455055,38.2533956 74.3087591,38.2533956 L69.3708029,38.2533956 L69.3708029,45.8595076 L64.6722628,45.8595076 L64.6722628,24.6455857 Z M89.3620438,28.5674873 L82.9576642,28.5674873 L82.9576642,24.6455857 L100.464964,24.6455857 L100.464964,28.5674873 L94.0605839,28.5674873 L94.0605839,45.8595076 L89.3620438,45.8595076 L89.3620438,28.5674873 Z M106.689781,35.3416808 C106.689781,36.2330265 106.794525,37.0995996 107.004015,37.9414261 C107.213505,38.7832527 107.547686,39.5408851 108.006569,40.2143463 C108.465452,40.8878076 109.063987,41.4275588 109.80219,41.8336163 C110.540393,42.2396738 111.438194,42.4426995 112.49562,42.4426995 C113.553047,42.4426995 114.450848,42.2396738 115.189051,41.8336163 C115.927254,41.4275588 116.525788,40.8878076 116.984672,40.2143463 C117.443555,39.5408851 117.777736,38.7832527 117.987226,37.9414261 C118.196716,37.0995996 118.30146,36.2330265 118.30146,35.3416808 C118.30146,34.4107197 118.196716,33.5094837 117.987226,32.6379457 C117.777736,31.7664076 117.443555,30.9889678 116.984672,30.3056027 C116.525788,29.6222377 115.927254,29.0775346 115.189051,28.6714771 C114.450848,28.2654196 113.553047,28.0623939 112.49562,28.0623939 C111.438194,28.0623939 110.540393,28.2654196 109.80219,28.6714771 C109.063987,29.0775346 108.465452,29.6222377 108.006569,30.3056027 C107.547686,30.9889678 107.213505,31.7664076 107.004015,32.6379457 C106.794525,33.5094837 106.689781,34.4107197 106.689781,35.3416808 Z M101.991241,35.3416808 C101.991241,33.7570662 102.230655,32.2863678 102.709489,30.9295416 C103.188324,29.5727153 103.876638,28.3892241 104.774453,27.3790323 C105.672267,26.3688404 106.774568,25.576545 108.081387,25.0021222 C109.388206,24.4276994 110.859603,24.1404924 112.49562,24.1404924 C114.15159,24.1404924 115.627974,24.4276994 116.924818,25.0021222 C118.221661,25.576545 119.318974,26.3688404 120.216788,27.3790323 C121.114603,28.3892241 121.802917,29.5727153 122.281752,30.9295416 C122.760586,32.2863678 123,33.7570662 123,35.3416808 C123,36.8866801 122.760586,38.3276673 122.281752,39.6646859 C121.802917,41.0017045 121.114603,42.1653884 120.216788,43.1557725 C119.318974,44.1461566 118.221661,44.9235965 116.924818,45.4881154 C115.627974,46.0526344 114.15159,46.3348896 112.49562,46.3348896 C110.859603,46.3348896 109.388206,46.0526344 108.081387,45.4881154 C106.774568,44.9235965 105.672267,44.1461566 104.774453,43.1557725 C103.876638,42.1653884 103.188324,41.0017045 102.709489,39.6646859 C102.230655,38.3276673 101.991241,36.8866801 101.991241,35.3416808 Z M0.658394161,65.4244482 L5.35693431,65.4244482 L5.35693431,70 L0.658394161,70 L0.658394161,65.4244482 Z M13.9459854,57.3726655 L18.7043796,57.3726655 C19.54234,57.3726655 20.2306542,57.1745917 20.7693431,56.778438 C21.3080319,56.3822844 21.5773723,55.7385444 21.5773723,54.8471986 C21.5773723,54.3520066 21.4875921,53.9459552 21.3080292,53.6290323 C21.1284663,53.3121093 20.8890526,53.064517 20.589781,52.8862479 C20.2905095,52.7079787 19.9463523,52.5841826 19.5572993,52.5148557 C19.1682462,52.4455288 18.7642357,52.4108659 18.3452555,52.4108659 L13.9459854,52.4108659 L13.9459854,57.3726655 Z M9.24744526,48.7860781 L19.3029197,48.7860781 C20.320443,48.7860781 21.248171,48.8752113 22.0861314,49.0534805 C22.9240918,49.2317496 23.6423328,49.5239086 24.2408759,49.929966 C24.8394191,50.3360235 25.303283,50.8757748 25.6324818,51.549236 C25.9616805,52.2226972 26.1262774,53.0546074 26.1262774,54.0449915 C26.1262774,55.1146064 25.8818759,56.0059387 25.3930657,56.7190153 C24.9042555,57.4320919 24.1810267,58.0164097 23.2233577,58.4719864 C24.5401526,58.8483324 25.5227461,59.5069279 26.1711679,60.4477929 C26.8195896,61.3886578 27.1437956,62.5226306 27.1437956,63.8497453 C27.1437956,64.9193602 26.9343087,65.8453555 26.5153285,66.6277589 C26.0963483,67.4101624 25.5327286,68.0489506 24.8244526,68.5441426 C24.1161765,69.0393347 23.3081554,69.4057713 22.400365,69.6434635 C21.4925745,69.8811557 20.5598588,70 19.6021898,70 L9.24744526,70 L9.24744526,48.7860781 Z M13.9459854,66.3752122 L18.9737226,66.3752122 C19.4326057,66.3752122 19.8715308,66.3306456 20.2905109,66.241511 C20.7094911,66.1523765 21.0785872,66.0038211 21.3978102,65.7958404 C21.7170332,65.5878597 21.9714102,65.3056045 22.1609489,64.9490662 C22.3504876,64.5925279 22.4452555,64.1369581 22.4452555,63.582343 C22.4452555,62.4929204 22.1360128,61.7154805 21.5175182,61.25 C20.8990237,60.7845195 20.081027,60.5517827 19.0635036,60.5517827 L13.9459854,60.5517827 L13.9459854,66.3752122 Z M30.3160584,48.7860781 L35.0145985,48.7860781 L35.0145985,70 L30.3160584,70 L30.3160584,48.7860781 Z M37.7678832,66.3157895 L49.229927,52.7079796 L38.6656934,52.7079796 L38.6656934,48.7860781 L55.4846715,48.7860781 L55.4846715,52.4702886 L44.0226277,66.0780985 L55.7839416,66.0780985 L55.7839416,70 L37.7678832,70 L37.7678832,66.3157895 Z" id="COOL-CRYPTO-.BIZ" fill="#000000"></path>
            <g id="smile" transform="translate(75.500000, 73.000000) rotate(24.000000) translate(-75.500000, -73.000000) translate(52.000000, 50.000000)">
                <ellipse id="Oval" fill="#FF0000" cx="23.5" cy="23" rx="23.5" ry="23"></ellipse>
                <path d="M22.03125,20.4276316 C22.03125,21.9407895 20.9490132,23.3026316 18.4753289,23.6052632 L18.3207237,23.7565789 L18.3207237,24.6644737 L18.1661184,24.8157895 L16.9292763,24.8157895 L16.7746711,24.6644737 L16.7746711,23.7565789 L16.6200658,23.6052632 C14.3009868,23.3026316 13.0641447,21.9407895 13.0641447,20.125 L13.21875,19.9736842 L15.0740132,19.9736842 L15.2286184,20.125 C15.2286184,21.0328947 15.6924342,21.6381579 16.6200658,21.7894737 L16.7746711,21.6381579 L16.7746711,18.9144737 L16.6200658,18.7631579 C14.6101974,18.3092105 13.21875,17.5526316 13.21875,15.5855263 C13.21875,13.7697368 14.9194079,12.8618421 16.6200658,12.7105263 L16.7746711,12.5592105 L16.7746711,11.6513158 L16.9292763,11.5 L18.1661184,11.5 L18.3207237,11.6513158 L18.3207237,12.5592105 L18.4753289,12.7105263 C20.3305921,13.0131579 21.5674342,14.0723684 21.5674342,15.8881579 L21.4128289,16.0394737 L19.5575658,16.0394737 L19.4029605,15.8881579 C19.4029605,15.1315789 19.09375,14.8289474 18.4753289,14.6776316 L18.3207237,14.8289474 L18.3207237,16.9473684 L18.4753289,17.0986842 C20.0213816,17.4013158 22.03125,18.1578947 22.03125,20.4276316 Z M19.8667763,20.4276316 C19.8667763,19.5197368 19.2483553,19.2171053 18.4753289,19.0657895 L18.3207237,19.2171053 L18.3207237,21.6381579 L18.4753289,21.7894737 C19.2483553,21.6381579 19.8667763,21.1842105 19.8667763,20.4276316 Z M15.3832237,15.5855263 C15.3832237,16.3421053 16.0016447,16.6447368 16.6200658,16.7960526 L16.7746711,16.6447368 L16.7746711,14.6776316 L16.6200658,14.5263158 C16.15625,14.5263158 15.3832237,14.8289474 15.3832237,15.5855263 Z" id="$" fill="#000000"></path>
                <path d="M33.78125,20.4276316 C33.78125,21.9407895 32.6990132,23.3026316 30.2253289,23.6052632 L30.0707237,23.7565789 L30.0707237,24.6644737 L29.9161184,24.8157895 L28.6792763,24.8157895 L28.5246711,24.6644737 L28.5246711,23.7565789 L28.3700658,23.6052632 C26.0509868,23.3026316 24.8141447,21.9407895 24.8141447,20.125 L24.96875,19.9736842 L26.8240132,19.9736842 L26.9786184,20.125 C26.9786184,21.0328947 27.4424342,21.6381579 28.3700658,21.7894737 L28.5246711,21.6381579 L28.5246711,18.9144737 L28.3700658,18.7631579 C26.3601974,18.3092105 24.96875,17.5526316 24.96875,15.5855263 C24.96875,13.7697368 26.6694079,12.8618421 28.3700658,12.7105263 L28.5246711,12.5592105 L28.5246711,11.6513158 L28.6792763,11.5 L29.9161184,11.5 L30.0707237,11.6513158 L30.0707237,12.5592105 L30.2253289,12.7105263 C32.0805921,13.0131579 33.3174342,14.0723684 33.3174342,15.8881579 L33.1628289,16.0394737 L31.3075658,16.0394737 L31.1529605,15.8881579 C31.1529605,15.1315789 30.84375,14.8289474 30.2253289,14.6776316 L30.0707237,14.8289474 L30.0707237,16.9473684 L30.2253289,17.0986842 C31.7713816,17.4013158 33.78125,18.1578947 33.78125,20.4276316 Z M31.6167763,20.4276316 C31.6167763,19.5197368 30.9983553,19.2171053 30.2253289,19.0657895 L30.0707237,19.2171053 L30.0707237,21.6381579 L30.2253289,21.7894737 C30.9983553,21.6381579 31.6167763,21.1842105 31.6167763,20.4276316 Z M27.1332237,15.5855263 C27.1332237,16.3421053 27.7516447,16.6447368 28.3700658,16.7960526 L28.5246711,16.6447368 L28.5246711,14.6776316 L28.3700658,14.5263158 C27.90625,14.5263158 27.1332237,14.8289474 27.1332237,15.5855263 Z" id="$-copy" fill="#000000"></path>
                <path d="M8.58059211,23 C8.58059211,22.3732295 9.09973561,21.8651316 9.74013158,21.8651316 C10.3805275,21.8651316 10.8996711,22.3732295 10.8996711,23 C10.8996711,29.6437675 16.4025922,35.0296053 23.1907895,35.0296053 C29.9789867,35.0296053 35.4819079,29.6437675 35.4819079,23 C35.4819079,22.3732295 36.0010514,21.8651316 36.6414474,21.8651316 C37.2818433,21.8651316 37.8009868,22.3732295 37.8009868,23 C37.8009868,30.8973086 31.2597787,37.2993421 23.1907895,37.2993421 C15.1218003,37.2993421 8.58059211,30.8973086 8.58059211,23 Z" id="Oval-2" fill="#000000" fill-rule="nonzero"></path>
            </g>
        </g>
    </g>
</svg>