<?xml version="1.0" encoding="UTF-8"?>
<svg width="329px" height="189px" viewBox="0 0 329 189" version="1.1" xmlns="http://www.w3.org/2000/svg" xmlns:xlink="http://www.w3.org/1999/xlink">
    <!-- Generator: Sketch 48.2 (47327) - http://www.bohemiancoding.com/sketch -->
    <title>logo</title>
    <desc>Created with Sketch.</desc>
    <defs></defs>
    <g id="Page-1" stroke="none" stroke-width="1" fill="none" fill-rule="evenodd">
        <path d="M40.6,21.08 C40.3866656,19.6399928 39.9066704,18.320006 39.16,17.12 C38.4133296,15.919994 37.4800056,14.8666712 36.36,13.96 C35.2399944,13.0533288 33.9733404,12.3466692 32.56,11.84 C31.1466596,11.3333308 29.6666744,11.08 28.12,11.08 C25.2933192,11.08 22.8933432,11.6266612 20.92,12.72 C18.9466568,13.8133388 17.3466728,15.2799908 16.12,17.12 C14.8933272,18.9600092 14.0000028,21.0533216 13.44,23.4 C12.8799972,25.7466784 12.6,28.1733208 12.6,30.68 C12.6,33.080012 12.8799972,35.413322 13.44,37.68 C14.0000028,39.946678 14.8933272,41.9866576 16.12,43.8 C17.3466728,45.6133424 18.9466568,47.0666612 20.92,48.16 C22.8933432,49.2533388 25.2933192,49.8 28.12,49.8 C31.9600192,49.8 34.9599892,48.6266784 37.12,46.28 C39.2800108,43.9333216 40.5999976,40.8400192 41.08,37 L53.24,37 C52.9199984,40.5733512 52.09334,43.7999856 50.76,46.68 C49.42666,49.5600144 47.6666776,52.0133232 45.48,54.04 C43.2933224,56.0666768 40.733348,57.613328 37.8,58.68 C34.866652,59.746672 31.6400176,60.28 28.12,60.28 C23.7466448,60.28 19.8133508,59.5200076 16.32,58 C12.8266492,56.4799924 9.880012,54.38668 7.48,51.72 C5.079988,49.05332 3.2400064,45.920018 1.96,42.32 C0.6799936,38.719982 0.04,34.8400208 0.04,30.68 C0.04,26.413312 0.6799936,22.4533516 1.96,18.8 C3.2400064,15.1466484 5.079988,11.9600136 7.48,9.24 C9.880012,6.5199864 12.8266492,4.3866744 16.32,2.84 C19.8133508,1.2933256 23.7466448,0.52 28.12,0.52 C31.2666824,0.52 34.239986,0.9733288 37.04,1.88 C39.840014,2.7866712 42.3466556,4.106658 44.56,5.84 C46.7733444,7.573342 48.5999928,9.7199872 50.04,12.28 C51.4800072,14.8400128 52.3866648,17.7733168 52.76,21.08 L40.6,21.08 Z M71.88,30.68 C71.88,33.080012 72.1599972,35.413322 72.72,37.68 C73.2800028,39.946678 74.1733272,41.9866576 75.4,43.8 C76.6266728,45.6133424 78.2266568,47.0666612 80.2,48.16 C82.1733432,49.2533388 84.5733192,49.8 87.4,49.8 C90.2266808,49.8 92.6266568,49.2533388 94.6,48.16 C96.5733432,47.0666612 98.1733272,45.6133424 99.4,43.8 C100.626673,41.9866576 101.519997,39.946678 102.08,37.68 C102.640003,35.413322 102.92,33.080012 102.92,30.68 C102.92,28.1733208 102.640003,25.7466784 102.08,23.4 C101.519997,21.0533216 100.626673,18.9600092 99.4,17.12 C98.1733272,15.2799908 96.5733432,13.8133388 94.6,12.72 C92.6266568,11.6266612 90.2266808,11.08 87.4,11.08 C84.5733192,11.08 82.1733432,11.6266612 80.2,12.72 C78.2266568,13.8133388 76.6266728,15.2799908 75.4,17.12 C74.1733272,18.9600092 73.2800028,21.0533216 72.72,23.4 C72.1599972,25.7466784 71.88,28.1733208 71.88,30.68 Z M59.32,30.68 C59.32,26.413312 59.9599936,22.4533516 61.24,18.8 C62.5200064,15.1466484 64.359988,11.9600136 66.76,9.24 C69.160012,6.5199864 72.1066492,4.3866744 75.6,2.84 C79.0933508,1.2933256 83.0266448,0.52 87.4,0.52 C91.8266888,0.52 95.773316,1.2933256 99.24,2.84 C102.706684,4.3866744 105.639988,6.5199864 108.04,9.24 C110.440012,11.9600136 112.279994,15.1466484 113.56,18.8 C114.840006,22.4533516 115.48,26.413312 115.48,30.68 C115.48,34.8400208 114.840006,38.719982 113.56,42.32 C112.279994,45.920018 110.440012,49.05332 108.04,51.72 C105.639988,54.38668 102.706684,56.4799924 99.24,58 C95.773316,59.5200076 91.8266888,60.28 87.4,60.28 C83.0266448,60.28 79.0933508,59.5200076 75.6,58 C72.1066492,56.4799924 69.160012,54.38668 66.76,51.72 C64.359988,49.05332 62.5200064,45.920018 61.24,42.32 C59.9599936,38.719982 59.32,34.8400208 59.32,30.68 Z M134.12,30.68 C134.12,33.080012 134.399997,35.413322 134.96,37.68 C135.520003,39.946678 136.413327,41.9866576 137.64,43.8 C138.866673,45.6133424 140.466657,47.0666612 142.44,48.16 C144.413343,49.2533388 146.813319,49.8 149.64,49.8 C152.466681,49.8 154.866657,49.2533388 156.84,48.16 C158.813343,47.0666612 160.413327,45.6133424 161.64,43.8 C162.866673,41.9866576 163.759997,39.946678 164.32,37.68 C164.880003,35.413322 165.16,33.080012 165.16,30.68 C165.16,28.1733208 164.880003,25.7466784 164.32,23.4 C163.759997,21.0533216 162.866673,18.9600092 161.64,17.12 C160.413327,15.2799908 158.813343,13.8133388 156.84,12.72 C154.866657,11.6266612 152.466681,11.08 149.64,11.08 C146.813319,11.08 144.413343,11.6266612 142.44,12.72 C140.466657,13.8133388 138.866673,15.2799908 137.64,17.12 C136.413327,18.9600092 135.520003,21.0533216 134.96,23.4 C134.399997,25.7466784 134.12,28.1733208 134.12,30.68 Z M121.56,30.68 C121.56,26.413312 122.199994,22.4533516 123.48,18.8 C124.760006,15.1466484 126.599988,11.9600136 129,9.24 C131.400012,6.5199864 134.346649,4.3866744 137.84,2.84 C141.333351,1.2933256 145.266645,0.52 149.64,0.52 C154.066689,0.52 158.013316,1.2933256 161.48,2.84 C164.946684,4.3866744 167.879988,6.5199864 170.28,9.24 C172.680012,11.9600136 174.519994,15.1466484 175.8,18.8 C177.080006,22.4533516 177.72,26.413312 177.72,30.68 C177.72,34.8400208 177.080006,38.719982 175.8,42.32 C174.519994,45.920018 172.680012,49.05332 170.28,51.72 C167.879988,54.38668 164.946684,56.4799924 161.48,58 C158.013316,59.5200076 154.066689,60.28 149.64,60.28 C145.266645,60.28 141.333351,59.5200076 137.84,58 C134.346649,56.4799924 131.400012,54.38668 129,51.72 C126.599988,49.05332 124.760006,45.920018 123.48,42.32 C122.199994,38.719982 121.56,34.8400208 121.56,30.68 Z M186.28,1.88 L198.84,1.88 L198.84,48.44 L226.68,48.44 L226.68,59 L186.28,59 L186.28,1.88 Z M40.6,86.08 C40.3866656,84.6399928 39.9066704,83.320006 39.16,82.12 C38.4133296,80.919994 37.4800056,79.8666712 36.36,78.96 C35.2399944,78.0533288 33.9733404,77.3466692 32.56,76.84 C31.1466596,76.3333308 29.6666744,76.08 28.12,76.08 C25.2933192,76.08 22.8933432,76.6266612 20.92,77.72 C18.9466568,78.8133388 17.3466728,80.2799908 16.12,82.12 C14.8933272,83.9600092 14.0000028,86.0533216 13.44,88.4 C12.8799972,90.7466784 12.6,93.1733208 12.6,95.68 C12.6,98.080012 12.8799972,100.413322 13.44,102.68 C14.0000028,104.946678 14.8933272,106.986658 16.12,108.8 C17.3466728,110.613342 18.9466568,112.066661 20.92,113.16 C22.8933432,114.253339 25.2933192,114.8 28.12,114.8 C31.9600192,114.8 34.9599892,113.626678 37.12,111.28 C39.2800108,108.933322 40.5999976,105.840019 41.08,102 L53.24,102 C52.9199984,105.573351 52.09334,108.799986 50.76,111.68 C49.42666,114.560014 47.6666776,117.013323 45.48,119.04 C43.2933224,121.066677 40.733348,122.613328 37.8,123.68 C34.866652,124.746672 31.6400176,125.28 28.12,125.28 C23.7466448,125.28 19.8133508,124.520008 16.32,123 C12.8266492,121.479992 9.880012,119.38668 7.48,116.72 C5.079988,114.05332 3.2400064,110.920018 1.96,107.32 C0.6799936,103.719982 0.04,99.8400208 0.04,95.68 C0.04,91.413312 0.6799936,87.4533516 1.96,83.8 C3.2400064,80.1466484 5.079988,76.9600136 7.48,74.24 C9.880012,71.5199864 12.8266492,69.3866744 16.32,67.84 C19.8133508,66.2933256 23.7466448,65.52 28.12,65.52 C31.2666824,65.52 34.239986,65.9733288 37.04,66.88 C39.840014,67.7866712 42.3466556,69.106658 44.56,70.84 C46.7733444,72.573342 48.5999928,74.7199872 50.04,77.28 C51.4800072,79.8400128 52.3866648,82.7733168 52.76,86.08 L40.6,86.08 Z M74.36,92.72 L88.12,92.72 C91.0000144,92.72 93.1599928,92.0800064 94.6,90.8 C96.0400072,89.5199936 96.76,87.4400144 96.76,84.56 C96.76,81.7866528 96.0400072,79.7733396 94.6,78.52 C93.1599928,77.2666604 91.0000144,76.64 88.12,76.64 L74.36,76.64 L74.36,92.72 Z M61.8,66.88 L92.6,66.88 C95.1600128,66.88 97.4666564,67.2933292 99.52,68.12 C101.573344,68.9466708 103.333326,70.0799928 104.8,71.52 C106.266674,72.9600072 107.386663,74.6266572 108.16,76.52 C108.933337,78.4133428 109.32,80.4533224 109.32,82.64 C109.32,86.0000168 108.61334,88.9066544 107.2,91.36 C105.78666,93.8133456 103.480016,95.6799936 100.28,96.96 L100.28,97.12 C101.826674,97.5466688 103.106662,98.1999956 104.12,99.08 C105.133338,99.9600044 105.959997,100.999994 106.6,102.2 C107.240003,103.400006 107.706665,104.719993 108,106.16 C108.293335,107.600007 108.493333,109.039993 108.6,110.48 C108.653334,111.386671 108.706666,112.453327 108.76,113.68 C108.813334,114.906673 108.906666,116.159994 109.04,117.44 C109.173334,118.720006 109.386665,119.933328 109.68,121.08 C109.973335,122.226672 110.41333,123.199996 111,124 L98.44,124 C97.7466632,122.186658 97.3200008,120.026679 97.16,117.52 C96.9999992,115.013321 96.7600016,112.613345 96.44,110.32 C96.0133312,107.333318 95.1066736,105.146674 93.72,103.76 C92.3333264,102.373326 90.0666824,101.68 86.92,101.68 L74.36,101.68 L74.36,124 L61.8,124 L61.8,66.88 Z M134.36,101.76 L113.4,66.88 L127.48,66.88 L140.84,89.44 L154.12,66.88 L168.12,66.88 L146.92,102.08 L146.92,124 L134.36,124 L134.36,101.76 Z M185.48,93.76 L195.24,93.76 C196.680007,93.76 198.06666,93.6533344 199.4,93.44 C200.73334,93.2266656 201.906662,92.8133364 202.92,92.2 C203.933338,91.5866636 204.746664,90.7200056 205.36,89.6 C205.973336,88.4799944 206.28,87.0133424 206.28,85.2 C206.28,83.3866576 205.973336,81.9200056 205.36,80.8 C204.746664,79.6799944 203.933338,78.8133364 202.92,78.2 C201.906662,77.5866636 200.73334,77.1733344 199.4,76.96 C198.06666,76.7466656 196.680007,76.64 195.24,76.64 L185.48,76.64 L185.48,93.76 Z M172.92,66.88 L198.68,66.88 C202.253351,66.88 205.293321,67.3999948 207.8,68.44 C210.306679,69.4800052 212.346659,70.8533248 213.92,72.56 C215.493341,74.2666752 216.639996,76.2133224 217.36,78.4 C218.080004,80.5866776 218.44,82.8533216 218.44,85.2 C218.44,87.4933448 218.080004,89.7466556 217.36,91.96 C216.639996,94.1733444 215.493341,96.1333248 213.92,97.84 C212.346659,99.5466752 210.306679,100.919995 207.8,101.96 C205.293321,103.000005 202.253351,103.52 198.68,103.52 L185.48,103.52 L185.48,124 L172.92,124 L172.92,66.88 Z M238.92,77.44 L221.8,77.44 L221.8,66.88 L268.6,66.88 L268.6,77.44 L251.48,77.44 L251.48,124 L238.92,124 L238.92,77.44 Z M285.24,95.68 C285.24,98.080012 285.519997,100.413322 286.08,102.68 C286.640003,104.946678 287.533327,106.986658 288.76,108.8 C289.986673,110.613342 291.586657,112.066661 293.56,113.16 C295.533343,114.253339 297.933319,114.8 300.76,114.8 C303.586681,114.8 305.986657,114.253339 307.96,113.16 C309.933343,112.066661 311.533327,110.613342 312.76,108.8 C313.986673,106.986658 314.879997,104.946678 315.44,102.68 C316.000003,100.413322 316.28,98.080012 316.28,95.68 C316.28,93.1733208 316.000003,90.7466784 315.44,88.4 C314.879997,86.0533216 313.986673,83.9600092 312.76,82.12 C311.533327,80.2799908 309.933343,78.8133388 307.96,77.72 C305.986657,76.6266612 303.586681,76.08 300.76,76.08 C297.933319,76.08 295.533343,76.6266612 293.56,77.72 C291.586657,78.8133388 289.986673,80.2799908 288.76,82.12 C287.533327,83.9600092 286.640003,86.0533216 286.08,88.4 C285.519997,90.7466784 285.24,93.1733208 285.24,95.68 Z M272.68,95.68 C272.68,91.413312 273.319994,87.4533516 274.6,83.8 C275.880006,80.1466484 277.719988,76.9600136 280.12,74.24 C282.520012,71.5199864 285.466649,69.3866744 288.96,67.84 C292.453351,66.2933256 296.386645,65.52 300.76,65.52 C305.186689,65.52 309.133316,66.2933256 312.6,67.84 C316.066684,69.3866744 318.999988,71.5199864 321.4,74.24 C323.800012,76.9600136 325.639994,80.1466484 326.92,83.8 C328.200006,87.4533516 328.84,91.413312 328.84,95.68 C328.84,99.8400208 328.200006,103.719982 326.92,107.32 C325.639994,110.920018 323.800012,114.05332 321.4,116.72 C318.999988,119.38668 316.066684,121.479992 312.6,123 C309.133316,124.520008 305.186689,125.28 300.76,125.28 C296.386645,125.28 292.453351,124.520008 288.96,123 C285.466649,121.479992 282.520012,119.38668 280.12,116.72 C277.719988,114.05332 275.880006,110.920018 274.6,107.32 C273.319994,103.719982 272.68,99.8400208 272.68,95.68 Z M1.8,176.68 L14.36,176.68 L14.36,189 L1.8,189 L1.8,176.68 Z M37.32,155 L50.04,155 C52.2800112,155 54.1199928,154.466672 55.56,153.4 C57.0000072,152.333328 57.72,150.600012 57.72,148.2 C57.72,146.86666 57.4800024,145.773338 57,144.92 C56.5199976,144.066662 55.880004,143.400002 55.08,142.92 C54.279996,142.439998 53.3600052,142.106668 52.32,141.92 C51.2799948,141.733332 50.2000056,141.64 49.08,141.64 L37.32,141.64 L37.32,155 Z M24.76,131.88 L51.64,131.88 C54.3600136,131.88 56.8399888,132.119998 59.08,132.6 C61.3200112,133.080002 63.239992,133.866661 64.84,134.96 C66.440008,136.053339 67.6799956,137.506658 68.56,139.32 C69.4400044,141.133342 69.88,143.37332 69.88,146.04 C69.88,148.920014 69.2266732,151.31999 67.92,153.24 C66.6133268,155.16001 64.6800128,156.733327 62.12,157.96 C65.6400176,158.973338 68.266658,160.746654 70,163.28 C71.733342,165.813346 72.6,168.866649 72.6,172.44 C72.6,175.320014 72.0400056,177.813323 70.92,179.92 C69.7999944,182.026677 68.2933428,183.74666 66.4,185.08 C64.5066572,186.41334 62.3466788,187.399997 59.92,188.04 C57.4933212,188.680003 55.0000128,189 52.44,189 L24.76,189 L24.76,131.88 Z M37.32,179.24 L50.76,179.24 C51.9866728,179.24 53.1599944,179.120001 54.28,178.88 C55.4000056,178.639999 56.3866624,178.240003 57.24,177.68 C58.0933376,177.119997 58.7733308,176.360005 59.28,175.4 C59.7866692,174.439995 60.04,173.213341 60.04,171.72 C60.04,168.786652 59.2133416,166.69334 57.56,165.44 C55.9066584,164.18666 53.7200136,163.56 51,163.56 L37.32,163.56 L37.32,179.24 Z M81.08,131.88 L93.64,131.88 L93.64,189 L81.08,189 L81.08,131.88 Z M101,179.08 L131.64,142.44 L103.4,142.44 L103.4,131.88 L148.36,131.88 L148.36,141.8 L117.72,178.44 L149.16,178.44 L149.16,189 L101,189 L101,179.08 Z" id="logo" fill="#000000"></path>
    </g>
</svg>