<?xml version="1.0" encoding="UTF-8"?>
<svg width="125px" height="125px" viewBox="0 0 125 125" version="1.1" xmlns="http://www.w3.org/2000/svg" xmlns:xlink="http://www.w3.org/1999/xlink">
    <!-- Generator: Sketch 48.2 (47327) - http://www.bohemiancoding.com/sketch -->
    <title>smile</title>
    <desc>Created with Sketch.</desc>
    <defs></defs>
    <g id="Desktop-HD" stroke="none" stroke-width="1" fill="none" fill-rule="evenodd" transform="translate(-234.000000, -232.000000)">
        <g id="Group-2" transform="translate(92.000000, 93.000000)">
            <g id="smile" transform="translate(204.500000, 201.500000) rotate(24.000000) translate(-204.500000, -201.500000) translate(142.000000, 139.000000)">
                <circle id="Oval" fill="#FFFC00" cx="62.5" cy="62.5" r="62.5"></circle>
                <path d="M58.59375,55.5098684 C58.59375,59.6217105 55.7154605,63.3223684 49.1365132,64.1447368 L48.7253289,64.5559211 L48.7253289,67.0230263 L48.3141447,67.4342105 L45.0246711,67.4342105 L44.6134868,67.0230263 L44.6134868,64.5559211 L44.2023026,64.1447368 C38.0345395,63.3223684 34.7450658,59.6217105 34.7450658,54.6875 L35.15625,54.2763158 L40.0904605,54.2763158 L40.5016447,54.6875 C40.5016447,57.1546053 41.7351974,58.7993421 44.2023026,59.2105263 L44.6134868,58.7993421 L44.6134868,51.3980263 L44.2023026,50.9868421 C38.8569079,49.7532895 35.15625,47.6973684 35.15625,42.3519737 C35.15625,37.4177632 39.6792763,34.9506579 44.2023026,34.5394737 L44.6134868,34.1282895 L44.6134868,31.6611842 L45.0246711,31.25 L48.3141447,31.25 L48.7253289,31.6611842 L48.7253289,34.1282895 L49.1365132,34.5394737 C54.0707237,35.3618421 57.3601974,38.2401316 57.3601974,43.1743421 L56.9490132,43.5855263 L52.0148026,43.5855263 L51.6036184,43.1743421 C51.6036184,41.1184211 50.78125,40.2960526 49.1365132,39.8848684 L48.7253289,40.2960526 L48.7253289,46.0526316 L49.1365132,46.4638158 C53.2483553,47.2861842 58.59375,49.3421053 58.59375,55.5098684 Z M52.8371711,55.5098684 C52.8371711,53.0427632 51.1924342,52.2203947 49.1365132,51.8092105 L48.7253289,52.2203947 L48.7253289,58.7993421 L49.1365132,59.2105263 C51.1924342,58.7993421 52.8371711,57.5657895 52.8371711,55.5098684 Z M40.9128289,42.3519737 C40.9128289,44.4078947 42.5575658,45.2302632 44.2023026,45.6414474 L44.6134868,45.2302632 L44.6134868,39.8848684 L44.2023026,39.4736842 C42.96875,39.4736842 40.9128289,40.2960526 40.9128289,42.3519737 Z" id="$" fill="#000000"></path>
                <path d="M89.84375,55.5098684 C89.84375,59.6217105 86.9654605,63.3223684 80.3865132,64.1447368 L79.9753289,64.5559211 L79.9753289,67.0230263 L79.5641447,67.4342105 L76.2746711,67.4342105 L75.8634868,67.0230263 L75.8634868,64.5559211 L75.4523026,64.1447368 C69.2845395,63.3223684 65.9950658,59.6217105 65.9950658,54.6875 L66.40625,54.2763158 L71.3404605,54.2763158 L71.7516447,54.6875 C71.7516447,57.1546053 72.9851974,58.7993421 75.4523026,59.2105263 L75.8634868,58.7993421 L75.8634868,51.3980263 L75.4523026,50.9868421 C70.1069079,49.7532895 66.40625,47.6973684 66.40625,42.3519737 C66.40625,37.4177632 70.9292763,34.9506579 75.4523026,34.5394737 L75.8634868,34.1282895 L75.8634868,31.6611842 L76.2746711,31.25 L79.5641447,31.25 L79.9753289,31.6611842 L79.9753289,34.1282895 L80.3865132,34.5394737 C85.3207237,35.3618421 88.6101974,38.2401316 88.6101974,43.1743421 L88.1990132,43.5855263 L83.2648026,43.5855263 L82.8536184,43.1743421 C82.8536184,41.1184211 82.03125,40.2960526 80.3865132,39.8848684 L79.9753289,40.2960526 L79.9753289,46.0526316 L80.3865132,46.4638158 C84.4983553,47.2861842 89.84375,49.3421053 89.84375,55.5098684 Z M84.0871711,55.5098684 C84.0871711,53.0427632 82.4424342,52.2203947 80.3865132,51.8092105 L79.9753289,52.2203947 L79.9753289,58.7993421 L80.3865132,59.2105263 C82.4424342,58.7993421 84.0871711,57.5657895 84.0871711,55.5098684 Z M72.1628289,42.3519737 C72.1628289,44.4078947 73.8075658,45.2302632 75.4523026,45.6414474 L75.8634868,45.2302632 L75.8634868,39.8848684 L75.4523026,39.4736842 C74.21875,39.4736842 72.1628289,40.2960526 72.1628289,42.3519737 Z" id="$-copy" fill="#000000"></path>
                <path d="M22.8207237,62.5 C22.8207237,60.7968192 24.2014245,59.4161184 25.9046053,59.4161184 C27.607786,59.4161184 28.9884868,60.7968192 28.9884868,62.5 C28.9884868,80.5537161 43.6239155,95.1891447 61.6776316,95.1891447 C79.7313477,95.1891447 94.3667763,80.5537161 94.3667763,62.5 C94.3667763,60.7968192 95.7474771,59.4161184 97.4506579,59.4161184 C99.1538387,59.4161184 100.534539,60.7968192 100.534539,62.5 C100.534539,83.9600777 83.1377092,101.356908 61.6776316,101.356908 C40.2175539,101.356908 22.8207237,83.9600777 22.8207237,62.5 Z" id="Oval-2" fill="#000000" fill-rule="nonzero"></path>
            </g>
        </g>
    </g>
</svg>